<svg width="32" height="32" viewBox="0 0 32 32" fill="none" xmlns="http://www.w3.org/2000/svg">
<g clip-path="url(#clip0_67_2292)">
<path opacity="0.2" d="M16 28C19.1826 28 22.2348 26.7357 24.4853 24.4853C26.7357 22.2348 28 19.1826 28 16C28 12.8174 26.7357 9.76515 24.4853 7.51472C22.2348 5.26428 19.1826 4 16 4V11C17.3261 11 18.5979 11.5268 19.5355 12.4645C20.4732 13.4021 21 14.6739 21 16C21 17.3261 20.4732 18.5979 19.5355 19.5355C18.5979 20.4732 17.3261 21 16 21V28Z" fill="#031B3F"/>
<path d="M16 21V28" stroke="#031B3F" stroke-width="2" stroke-linecap="round" stroke-linejoin="round"/>
<path d="M5.60771 10C4.28694 12.2876 3.7579 14.9472 4.10266 17.5661C4.44741 20.1851 5.64668 22.6171 7.51448 24.485C9.38228 26.3529 11.8142 27.5524 14.4332 27.8973C17.0521 28.2422 19.7117 27.7133 21.9994 26.3927C24.2871 25.072 26.0752 23.0334 27.0862 20.593C28.0973 18.1526 28.2749 15.4468 27.5914 12.8952C26.908 10.3436 25.4017 8.08882 23.3062 6.48053C21.2106 4.87224 18.643 4.00032 16.0015 4V11C17.1021 11.0002 18.1719 11.3636 19.0449 12.0338C19.918 12.704 20.5455 13.6436 20.8302 14.7067C21.1149 15.7699 21.0408 16.8973 20.6195 17.9141C20.1981 18.9309 19.4531 19.7802 18.4999 20.3304C17.5466 20.8806 16.4385 21.1009 15.3473 20.9572C14.2561 20.8134 13.2428 20.3136 12.4646 19.5353C11.6864 18.757 11.1867 17.7437 11.0431 16.6525C10.8995 15.5613 11.1199 14.4532 11.6702 13.5L5.60771 10Z" stroke="#031B3F" stroke-width="2" stroke-linecap="round" stroke-linejoin="round"/>
<path d="M11.1687 17.295L4.40625 19.1063" stroke="#031B3F" stroke-width="2" stroke-linecap="round" stroke-linejoin="round"/>
</g>
<defs>
<clipPath id="clip0_67_2292">
<rect width="32" height="32" fill="white"/>
</clipPath>
</defs>
</svg>
