<svg xmlns="http://www.w3.org/2000/svg" viewBox="-4.73 -4.73 245.92 71.80">
  <defs>
    <style>
      .cls-1, .cls-3 {
        fill: #2365af;
      }

      .cls-1 {
        fill-rule: evenodd;
      }

      .cls-2 {
        fill: #fff;
      }
    </style>
  </defs>
  <g id="Layer_2" data-name="Layer 2">
    <g id="Layer_1-2" data-name="Layer 1">
      <g>
        <g>
          <polygon class="cls-1" points="77.27 4.99 85.22 4.99 91.86 11.64 98.51 4.99 106.25 4.99 106.25 27.43 97.7 27.43 97.7 18.25 93.33 23.46 89.74 23.46 85.31 18.19 85.55 27.43 77.27 27.43 77.27 4.99 77.27 4.99"/>
          <polygon class="cls-1" points="163.52 27.43 154.87 27.43 154.87 4.99 163.52 4.99 163.52 27.43 163.52 27.43"/>
          <polygon class="cls-1" points="116.54 3.36 108.36 3.36 108.36 1.02 116.54 1.02 116.54 3.36 116.54 3.36"/>
          <polygon class="cls-1" points="126.82 27.43 118.88 27.43 118.88 20.19 118.88 4.99 126.82 4.99 126.82 20.19 135.24 20.19 135.24 27.43 126.82 27.43 126.82 27.43"/>
          <polygon class="cls-1" points="144.65 27.43 136.7 27.43 136.7 20.19 136.7 4.99 144.65 4.99 144.65 20.19 153.06 20.19 153.06 27.43 144.65 27.43 144.65 27.43"/>
          <polygon class="cls-1" points="116.54 27.43 108.36 27.43 108.36 4.99 116.54 4.99 116.54 27.43 116.54 27.43"/>
          <polygon class="cls-1" points="162.82 3.36 155.57 3.36 159.11 0.32 162.82 3.36 162.82 3.36"/>
          <polygon class="cls-1" points="110.34 37.02 102.16 37.02 102.16 34.68 110.34 34.68 110.34 37.02 110.34 37.02"/>
          <polygon class="cls-1" points="110.34 61.09 102.16 61.09 102.16 38.65 110.34 38.65 110.34 61.09 110.34 61.09"/>
          <path class="cls-1" d="M111.45,38.83h7.31l6.47,7.94c1.9-.38,3.2-2.79,4.43-8l7.92.11c-2.88,12.85-11,20.24-25.14,22.15V54.87c3.81-.41,6.14-.95,7.15-2.39a34.16,34.16,0,0,1-8.14-13.65Z"/>
          <path class="cls-1" d="M205.46,38.83l-8.19.11c-9.31.13-13,4.28-12.85,11.21,0,7.6,4.3,9.83,9.63,10.76h12.51a2.41,2.41,0,0,0,2-1.89V46.93H197.27v4.33h4.32V55c-.17,1.19-.94,1.24-2,1.32-4.37,0-7.07-1.4-7.31-5.88-.12-3.12,1-5.42,4.87-5.88h8.31V38.83Z"/>
          <path class="cls-1" d="M140.35,38.83h7.2l9.85,19.42V38.83h9.75l7.42,5v-5h8.52V61h-7.53c.17-7.26-2.81-12.11-9.52-13.39V61H149.32l-2.1-3.08h-7.31L138.35,61l-8.08-.19,10.08-22Zm3.46,8.1,1.37,2.69,1.37,2.69h-5.48l1.37-2.69,1.37-2.69Z"/>
          <path class="cls-1" d="M223.18,38.72c-7.33,0-13.29,5.24-13.29,11.65S215.85,62,223.18,62s13.28-5.23,13.28-11.65-6-11.65-13.28-11.65Zm0,4.66c-3.24,0-5.87,3.14-5.87,7s2.63,7,5.87,7,5.86-3.14,5.86-7-2.63-7-5.86-7Z"/>
          <path class="cls-1" d="M77,38.94l14.51-.11c.43.07.84.14,1.24.23,12.35,2.69,9.62,15.65-.36,17.19H85.2v4.88L77,61V38.94Zm8.19,5.44v6.44c5.58.23,9.31-.37,9-3.67-.17-2.3-3.63-3-9-2.77Z"/>
        </g>
        <g>
          <path class="cls-2" d="M23,59.85C17.3,59.85,9.42,57.61,4.18,47l-.06-.14a17.68,17.68,0,0,1-1.58-8.4l0-.3V9.74A7.24,7.24,0,0,1,17,8.61a7.24,7.24,0,0,1,14.4,1.13v1.72c.9-3.51,4.71-8.74,14.46-8.74.9,0,1.85,0,2.82.13l.15,0c10.82,1.64,13.08,10.61,12.77,15.2a16.46,16.46,0,0,1-4.43,10.66c-3,3-7.07,4.47-12.24,4.47h-.74v5.48A20.75,20.75,0,0,1,30.8,58.41,21.5,21.5,0,0,1,23,59.85ZM46.32,15.46A2.51,2.51,0,1,0,48.82,18,2.51,2.51,0,0,0,46.32,15.46Z"/>
          <path class="cls-3" d="M24.14,5a4.75,4.75,0,0,1,4.75,4.75v29h4.78v-26s.79-7.55,12.17-7.55c.81,0,1.68,0,2.6.12C59.91,7.07,59.09,18,59.09,18s.07,12.74-14.18,12.74a26.91,26.91,0,0,1-3.24-.2v8.23A18.24,18.24,0,0,1,29.87,56.1,19.15,19.15,0,0,1,23,57.35c-5.09,0-11.92-2.06-16.57-11.49A15.39,15.39,0,0,1,5,38.73h.05v-29a4.75,4.75,0,0,1,9.5,0v29h4.82v-29A4.74,4.74,0,0,1,24.14,5h0M46.32,23a5,5,0,1,0-5-5,5,5,0,0,0,5,5M24.14,0A9.71,9.71,0,0,0,17,3.14,9.73,9.73,0,0,0,.09,9.74V38l0,.15a19.92,19.92,0,0,0,1.75,9.67l.06.14.06.13C8.06,60.48,17.75,62.34,23,62.34a24.28,24.28,0,0,0,8.79-1.63A23.13,23.13,0,0,0,46.66,38.64v-3a18.34,18.34,0,0,0,12.26-5.15,18.76,18.76,0,0,0,5.15-12.32A16.83,16.83,0,0,0,49.18.41L49,.39l-.15,0c-1-.09-2.07-.14-3-.14C39.42.23,35.2,2.28,32.55,4.85A9.74,9.74,0,0,0,24.14,0ZM46.32,18h0Z"/>
        </g>
      </g>
    </g>
  </g>
</svg>
